<svg width="332" height="97" viewBox="0 0 332 97" fill="none" xmlns="http://www.w3.org/2000/svg">
<path d="M9.792 81C8.688 81 7.728 80.592 6.912 79.776C6.096 78.96 5.688 78 5.688 76.896V32.544C5.688 31.44 6.096 30.48 6.912 29.664C7.728 28.848 8.688 28.44 9.792 28.44H11.592C12.84 28.44 13.992 28.776 15.048 29.448C16.104 30.12 16.872 31.008 17.352 32.112L29.952 59.328C29.952 59.376 29.976 59.4 30.024 59.4C30.072 59.4 30.096 59.376 30.096 59.328L42.696 32.112C43.176 31.008 43.944 30.12 45 29.448C46.056 28.776 47.208 28.44 48.456 28.44H50.544C51.648 28.44 52.608 28.848 53.424 29.664C54.24 30.48 54.648 31.44 54.648 32.544V76.896C54.648 78 54.24 78.96 53.424 79.776C52.608 80.592 51.648 81 50.544 81H48.96C47.856 81 46.896 80.592 46.08 79.776C45.264 78.96 44.856 78 44.856 76.896V45.576C44.856 45.528 44.832 45.504 44.784 45.504C44.736 45.504 44.712 45.528 44.712 45.576L36.072 64.08C35.544 65.184 34.728 66.096 33.624 66.816C32.568 67.488 31.44 67.824 30.24 67.824H29.808C28.608 67.824 27.456 67.488 26.352 66.816C25.296 66.096 24.504 65.184 23.976 64.08L15.336 45.576C15.336 45.528 15.312 45.504 15.264 45.504C15.216 45.504 15.192 45.528 15.192 45.576V76.896C15.192 78 14.784 78.96 13.968 79.776C13.152 80.592 12.192 81 11.088 81H9.792ZM71.5601 81C70.4561 81 69.4961 80.592 68.6801 79.776C67.8641 78.96 67.4561 78 67.4561 76.896V47.664C67.4561 46.56 67.8641 45.6 68.6801 44.784C69.4961 43.968 70.4561 43.56 71.5601 43.56H73.4321C74.5361 43.56 75.4961 43.968 76.3121 44.784C77.1281 45.6 77.5361 46.56 77.5361 47.664V76.896C77.5361 78 77.1281 78.96 76.3121 79.776C75.4961 80.592 74.5361 81 73.4321 81H71.5601ZM71.5601 35.64C70.4561 35.64 69.4961 35.232 68.6801 34.416C67.8641 33.6 67.4561 32.64 67.4561 31.536V31.104C67.4561 30 67.8641 29.04 68.6801 28.224C69.4961 27.408 70.4561 27 71.5601 27H73.4321C74.5361 27 75.4961 27.408 76.3121 28.224C77.1281 29.04 77.5361 30 77.5361 31.104V31.536C77.5361 32.64 77.1281 33.6 76.3121 34.416C75.4961 35.232 74.5361 35.64 73.4321 35.64H71.5601ZM91.7843 71.28L108.056 50.688C108.056 50.64 108.08 50.616 108.128 50.616C108.128 50.568 108.104 50.544 108.056 50.544H93.0803C92.1203 50.544 91.3043 50.208 90.6323 49.536C89.9603 48.816 89.6243 47.976 89.6243 47.016C89.6243 46.056 89.9603 45.24 90.6323 44.568C91.3043 43.896 92.1203 43.56 93.0803 43.56H116.408C117.368 43.56 118.184 43.896 118.856 44.568C119.528 45.24 119.864 46.056 119.864 47.016C119.864 49.32 119.144 51.408 117.704 53.28L101.432 73.872C101.432 73.92 101.408 73.944 101.36 73.944C101.36 73.992 101.384 74.016 101.432 74.016H116.408C117.368 74.016 118.184 74.376 118.856 75.096C119.528 75.768 119.864 76.584 119.864 77.544C119.864 78.504 119.528 79.32 118.856 79.992C118.184 80.664 117.368 81 116.408 81H93.0803C92.1203 81 91.3043 80.664 90.6323 79.992C89.9603 79.32 89.6243 78.504 89.6243 77.544C89.6243 75.24 90.3443 73.152 91.7843 71.28ZM147.413 63C140.549 63 137.117 65.112 137.117 69.336C137.117 70.872 137.549 72.12 138.413 73.08C139.325 74.04 140.477 74.52 141.869 74.52C144.605 74.52 146.813 73.68 148.493 72C150.173 70.272 151.013 67.92 151.013 64.944V63.648C151.013 63.216 150.797 63 150.365 63H147.413ZM139.277 81.72C136.013 81.72 133.301 80.664 131.141 78.552C129.029 76.392 127.973 73.608 127.973 70.2C127.973 66.024 129.557 62.784 132.725 60.48C135.941 58.176 140.837 57.024 147.413 57.024H150.365C150.797 57.024 151.013 56.808 151.013 56.376V55.8C151.013 53.592 150.485 52.056 149.429 51.192C148.373 50.28 146.501 49.824 143.813 49.824C141.029 49.824 137.621 50.328 133.589 51.336C132.725 51.576 131.933 51.432 131.213 50.904C130.493 50.328 130.133 49.584 130.133 48.672C130.133 47.568 130.469 46.584 131.141 45.72C131.813 44.808 132.677 44.256 133.733 44.064C137.381 43.248 140.813 42.84 144.029 42.84C150.173 42.84 154.469 43.944 156.917 46.152C159.365 48.36 160.589 52.224 160.589 57.744V76.896C160.589 78 160.181 78.96 159.365 79.776C158.597 80.592 157.661 81 156.557 81H155.765C154.613 81 153.629 80.616 152.813 79.848C151.997 79.032 151.565 78.048 151.517 76.896V75.888C151.517 75.84 151.493 75.816 151.445 75.816C151.349 75.816 151.301 75.84 151.301 75.888C148.373 79.776 144.365 81.72 139.277 81.72ZM174.236 81C173.132 81 172.172 80.592 171.356 79.776C170.54 78.96 170.132 78 170.132 76.896V47.664C170.132 46.56 170.54 45.6 171.356 44.784C172.172 43.968 173.132 43.56 174.236 43.56H175.172C176.324 43.56 177.284 43.968 178.052 44.784C178.868 45.552 179.3 46.512 179.348 47.664V48.168C179.348 48.216 179.372 48.24 179.42 48.24C179.468 48.24 179.516 48.216 179.564 48.168C182.828 44.616 186.644 42.84 191.012 42.84C195.38 42.84 198.548 44.088 200.516 46.584C202.532 49.032 203.54 53.136 203.54 58.896V76.896C203.54 78 203.132 78.96 202.316 79.776C201.5 80.592 200.54 81 199.436 81H198.212C197.108 81 196.148 80.592 195.332 79.776C194.564 78.96 194.18 78 194.18 76.896V59.616C194.18 56.016 193.7 53.568 192.74 52.272C191.828 50.928 190.172 50.256 187.772 50.256C185.804 50.256 183.98 51.096 182.3 52.776C180.62 54.456 179.78 56.256 179.78 58.176V76.896C179.78 78 179.372 78.96 178.556 79.776C177.74 80.592 176.78 81 175.676 81H174.236ZM223.749 36.648V54C223.749 54.336 223.941 54.552 224.325 54.648C226.149 54.888 227.925 55.008 229.653 55.008C233.541 55.008 236.493 54.168 238.509 52.488C240.573 50.76 241.605 48.312 241.605 45.144C241.605 38.76 237.621 35.568 229.653 35.568C227.925 35.568 226.149 35.688 224.325 35.928C223.941 36.024 223.749 36.264 223.749 36.648ZM217.845 81C216.741 81 215.781 80.592 214.965 79.776C214.197 78.96 213.813 78 213.813 76.896V32.904C213.813 31.752 214.197 30.72 214.965 29.808C215.733 28.896 216.693 28.392 217.845 28.296C221.925 27.912 225.861 27.72 229.653 27.72C236.853 27.72 242.253 29.16 245.853 32.04C249.453 34.872 251.253 39 251.253 44.424C251.253 50.424 249.501 54.96 245.997 58.032C242.541 61.104 237.405 62.64 230.589 62.64C229.005 62.64 226.917 62.544 224.325 62.352C223.941 62.352 223.749 62.544 223.749 62.928V76.896C223.749 78 223.341 78.96 222.525 79.776C221.709 80.592 220.749 81 219.645 81H217.845ZM274.538 63C267.674 63 264.242 65.112 264.242 69.336C264.242 70.872 264.674 72.12 265.538 73.08C266.45 74.04 267.602 74.52 268.994 74.52C271.73 74.52 273.938 73.68 275.618 72C277.298 70.272 278.138 67.92 278.138 64.944V63.648C278.138 63.216 277.922 63 277.49 63H274.538ZM266.402 81.72C263.138 81.72 260.426 80.664 258.266 78.552C256.154 76.392 255.098 73.608 255.098 70.2C255.098 66.024 256.682 62.784 259.85 60.48C263.066 58.176 267.962 57.024 274.538 57.024H277.49C277.922 57.024 278.138 56.808 278.138 56.376V55.8C278.138 53.592 277.61 52.056 276.554 51.192C275.498 50.28 273.626 49.824 270.938 49.824C268.154 49.824 264.746 50.328 260.714 51.336C259.85 51.576 259.058 51.432 258.338 50.904C257.618 50.328 257.258 49.584 257.258 48.672C257.258 47.568 257.594 46.584 258.266 45.72C258.938 44.808 259.802 44.256 260.858 44.064C264.506 43.248 267.938 42.84 271.154 42.84C277.298 42.84 281.594 43.944 284.042 46.152C286.49 48.36 287.714 52.224 287.714 57.744V76.896C287.714 78 287.306 78.96 286.49 79.776C285.722 80.592 284.786 81 283.682 81H282.89C281.738 81 280.754 80.616 279.938 79.848C279.122 79.032 278.69 78.048 278.642 76.896V75.888C278.642 75.84 278.618 75.816 278.57 75.816C278.474 75.816 278.426 75.84 278.426 75.888C275.498 79.776 271.49 81.72 266.402 81.72ZM304.725 80.424L292.773 47.376C292.485 46.416 292.605 45.552 293.133 44.784C293.661 43.968 294.429 43.56 295.437 43.56H297.597C298.797 43.56 299.901 43.944 300.909 44.712C301.917 45.432 302.565 46.368 302.853 47.52L309.549 71.064C309.549 71.112 309.573 71.136 309.621 71.136C309.669 71.136 309.693 71.112 309.693 71.064L317.397 47.448C317.781 46.296 318.477 45.36 319.485 44.64C320.493 43.92 321.597 43.56 322.797 43.56H324.525C325.533 43.56 326.301 43.968 326.829 44.784C327.405 45.6 327.501 46.464 327.117 47.376L309.549 93.024C309.117 94.176 308.397 95.088 307.389 95.76C306.381 96.48 305.253 96.84 304.005 96.84H302.277C301.317 96.84 300.549 96.432 299.973 95.616C299.445 94.848 299.373 94.008 299.757 93.096L304.725 81.576C304.821 81.384 304.869 81.192 304.869 81C304.869 80.808 304.821 80.616 304.725 80.424Z" fill="url(#paint0_linear_74_174)"/>
<defs>
<linearGradient id="paint0_linear_74_174" x1="-31.9642" y1="-19.4817" x2="168.478" y2="185.039" gradientUnits="userSpaceOnUse">
<stop/>
<stop offset="1" stop-color="#00821A"/>
</linearGradient>
</defs>
</svg>
