<svg width="166" height="101" viewBox="0 0 166 101" fill="none" xmlns="http://www.w3.org/2000/svg">
<path d="M32.8937 51.3615C35.5565 16.6517 15.9803 23.8612 6.91069 28.811C6.8201 28.8605 6.87494 28.9948 6.97814 28.9959C27.5359 29.2266 20.1778 47.3684 20 68.2853C19.8355 87.6387 31.484 97.1498 40 98.2853C48.7635 99.4538 56.1386 90.8339 59.2087 85.5709C60.5244 91.2725 66.6567 100.514 78.2353 99.4618C89.8139 98.4092 97.3654 87.7638 99.9969 81.6237C102.102 95.3075 114.909 99.6056 121.049 100.044C160.274 100.675 165.027 50.0774 164.563 51.6964C163.752 54.5246 155.258 88.2024 127.628 86.8867C99.9969 85.5709 106.574 34.0053 105.26 35.5725C102.868 38.4238 97.3654 86.8867 78.9449 85.5709C60.5244 84.2552 69.8402 35.818 68.523 35.4961C66.3792 34.9722 58.4426 87.8385 42.104 84.2552C29.2566 81.4375 31.9853 63.2032 32.8937 51.3615Z" fill="#BD0048" stroke="#BD0048"/>
<path d="M52.6299 15.399C32.5792 -17.1497 6.59544 9.87604 0.732764 25.037C0.538308 25.5399 1.18459 25.8293 1.53949 25.4234C31.039 -8.31326 53.1988 28.8176 45.065 64.0236C70.1361 -20.2054 89.8124 29.8597 81.9921 64.2858C97.5094 1.7147 121.288 12.2751 118.109 35.4961C111.134 95.036 151.859 67.9656 160.751 47.7248C160.955 47.2612 160.382 46.9009 159.987 47.2172C127.391 73.2893 127.054 54.5998 128.531 37.6502C135.032 -11.3871 99.68 -2.53876 90.6347 17.6897C82.4118 -10.4328 59.2678 2.27213 52.6299 15.399Z" fill="black" stroke="black" stroke-width="0.1"/>
</svg>
