<svg width="143" height="93" viewBox="0 0 143 93" fill="none" xmlns="http://www.w3.org/2000/svg">
<path d="M72.5988 8.4056C69.3279 1.55102 65.0616 0.0578013 59.6291 0.000916856C54.0687 -0.0559676 50.357 2.53228 47.5128 8.27761L5.9041 81.6189C3.26866 86.2643 6.62411 92.0258 11.965 92.0258C14.7266 92.0258 17.271 90.5281 18.6114 88.1135L60.4113 12.8141L97.1445 78.473C104.184 90.0348 114.93 91.14 121.5 90.5C135.707 89.0779 142.884 79.6141 142.5 67C142.315 60.1312 140.576 55.7477 136.949 49.6611L114.978 8.4056C111.138 2.02032 107.654 0.000916856 102.62 0.000916856C95.7533 0.000916856 92.1481 5.29676 84.7993 17.3838C84.4231 18.0026 84.4101 18.7791 84.767 19.4092L91.0973 30.5858C91.4773 31.2568 92.4416 31.2633 92.8307 30.5976L102.62 13.851L127.364 58.3928C129.953 63.0858 131.616 66.8544 129.697 71.4194C127.635 75.8848 122.6 78.8001 117.168 77.9611C112.262 77.1789 108.336 72.0735 104.027 64.2519L72.5988 8.4056Z" fill="url(#paint0_linear_75_175)"/>
<path d="M69.748 43.0677C70.1341 42.3845 71.1206 42.3919 71.4964 43.0807L77.2326 53.5937C77.7121 54.4727 77.7216 55.5329 77.2578 56.4203L61.2081 87.1271C59.6342 90.1383 56.5178 92.0258 53.1202 92.0258C48.1875 92.0258 45.0849 86.7088 47.5118 82.4144L69.748 43.0677Z" fill="url(#paint1_linear_75_175)"/>
<defs>
<linearGradient id="paint0_linear_75_175" x1="29.0129" y1="2.22299" x2="139.194" y2="92.9098" gradientUnits="userSpaceOnUse">
<stop/>
<stop offset="1" stop-color="#00821A"/>
</linearGradient>
<linearGradient id="paint1_linear_75_175" x1="51.9839" y1="52.6677" x2="101.346" y2="96.9566" gradientUnits="userSpaceOnUse">
<stop/>
<stop offset="1" stop-color="#00821A"/>
</linearGradient>
</defs>
</svg>
